<svg xmlns="http://www.w3.org/2000/svg" width="2048" height="862" viewBox="0 0 2048 862">
<path d="M 389,558 L 388,559 L 388,566 L 389,567 L 388,568 L 388,611 L 389,612 L 396,612 L 396,565 L 397,564 L 402,564 L 403,565 L 407,565 L 408,566 L 409,566 L 413,570 L 413,571 L 414,572 L 414,576 L 413,577 L 413,578 L 412,579 L 412,580 L 409,583 L 408,583 L 406,585 L 405,585 L 404,586 L 403,586 L 402,587 L 402,588 L 408,594 L 407,595 L 408,595 L 415,602 L 415,603 L 422,610 L 422,611 L 424,613 L 425,613 L 426,612 L 427,612 L 430,609 L 430,608 L 423,601 L 423,600 L 422,599 L 421,599 L 419,597 L 419,596 L 414,591 L 414,590 L 413,590 L 412,589 L 419,582 L 419,581 L 420,580 L 420,578 L 421,577 L 421,569 L 420,568 L 420,567 L 419,566 L 419,565 L 415,561 L 413,561 L 412,560 L 411,560 L 410,559 L 405,559 L 404,558 Z" fill="#9d43ed"/>
<path d="M 328,558 L 327,559 L 327,598 L 328,599 L 328,601 L 329,602 L 329,603 L 330,604 L 330,605 L 332,607 L 332,608 L 333,608 L 334,609 L 335,609 L 337,611 L 338,611 L 339,612 L 341,612 L 342,613 L 356,613 L 357,612 L 359,612 L 360,611 L 361,611 L 362,610 L 363,610 L 364,609 L 365,609 L 367,607 L 367,606 L 369,604 L 369,603 L 370,602 L 370,600 L 371,599 L 371,558 L 365,558 L 364,559 L 364,598 L 363,599 L 363,600 L 361,602 L 361,603 L 360,604 L 359,604 L 358,605 L 357,604 L 357,605 L 356,606 L 354,606 L 353,607 L 345,607 L 344,606 L 342,606 L 340,604 L 339,604 L 336,601 L 336,600 L 335,599 L 335,597 L 334,596 L 334,559 L 333,558 Z" fill="#9a3aed"/>
<path d="M 279,558 L 279,612 L 313,612 L 313,606 L 288,606 L 286,604 L 286,589 L 288,587 L 308,587 L 309,588 L 310,587 L 312,587 L 313,586 L 313,582 L 312,582 L 311,581 L 303,581 L 302,582 L 291,582 L 290,581 L 289,582 L 288,582 L 286,580 L 286,566 L 287,565 L 312,565 L 313,564 L 313,560 L 312,559 L 310,559 L 309,558 L 308,559 L 280,559 Z" fill="#9738ee"/>
<path d="M 220,558 L 219,559 L 218,559 L 217,560 L 216,560 L 214,562 L 214,570 L 215,571 L 215,606 L 214,607 L 214,611 L 215,612 L 221,612 L 222,611 L 222,609 L 221,608 L 221,572 L 222,571 L 227,576 L 227,577 L 232,582 L 232,583 L 234,585 L 234,586 L 239,591 L 239,592 L 242,595 L 242,596 L 245,599 L 245,600 L 248,603 L 248,604 L 251,607 L 251,608 L 254,611 L 254,612 L 258,612 L 261,609 L 261,601 L 260,600 L 260,574 L 261,573 L 261,559 L 260,558 L 255,558 L 254,559 L 254,596 L 253,597 L 252,597 L 250,595 L 250,594 L 248,592 L 248,591 L 247,590 L 246,590 L 244,588 L 244,586 L 239,581 L 239,580 L 236,577 L 236,576 L 231,571 L 231,570 L 228,567 L 228,566 L 223,561 L 223,560 L 221,558 Z" fill="#9637ec"/>
<path d="M 454,557 L 453,558 L 452,558 L 451,559 L 449,559 L 447,561 L 446,561 L 445,562 L 444,562 L 441,565 L 441,566 L 438,569 L 438,570 L 437,571 L 437,572 L 436,573 L 436,575 L 435,576 L 435,582 L 434,583 L 434,587 L 435,588 L 435,594 L 436,595 L 436,597 L 437,598 L 437,599 L 438,600 L 438,601 L 439,602 L 439,603 L 442,606 L 442,607 L 443,607 L 445,609 L 446,609 L 448,611 L 449,611 L 450,612 L 452,612 L 453,613 L 456,613 L 457,614 L 464,614 L 465,613 L 468,613 L 469,612 L 470,612 L 471,611 L 472,611 L 473,610 L 474,610 L 476,608 L 477,608 L 480,605 L 480,604 L 482,602 L 482,601 L 483,600 L 483,599 L 484,598 L 484,597 L 485,596 L 485,593 L 486,592 L 486,578 L 485,577 L 485,575 L 484,574 L 484,572 L 483,571 L 483,570 L 482,569 L 482,568 L 480,566 L 480,565 L 478,563 L 477,563 L 475,561 L 474,561 L 473,560 L 472,560 L 471,559 L 470,559 L 469,558 L 467,558 L 466,557 Z" fill="#cb9cf5"/>
<path d="M 547,504 L 546,505 L 545,505 L 543,507 L 543,509 L 542,510 L 542,517 L 543,518 L 543,520 L 544,521 L 544,522 L 546,524 L 546,525 L 552,531 L 553,531 L 554,532 L 555,532 L 558,535 L 560,535 L 562,537 L 564,537 L 565,538 L 566,538 L 567,539 L 570,539 L 571,540 L 573,540 L 574,541 L 576,541 L 577,542 L 579,542 L 580,543 L 584,543 L 585,544 L 588,544 L 589,545 L 596,545 L 597,546 L 616,546 L 617,545 L 619,545 L 619,543 L 618,542 L 614,542 L 613,541 L 611,541 L 610,540 L 608,540 L 607,539 L 606,539 L 605,538 L 604,538 L 603,537 L 602,537 L 601,536 L 600,536 L 599,535 L 598,535 L 597,534 L 596,534 L 595,533 L 594,533 L 592,531 L 591,531 L 589,529 L 588,529 L 585,526 L 584,526 L 579,521 L 578,521 L 570,513 L 569,513 L 565,509 L 564,509 L 561,506 L 560,506 L 559,505 L 557,505 L 556,504 Z" fill="#8e1ff2"/>
<path d="M 532,429 L 531,430 L 527,430 L 526,431 L 525,431 L 524,432 L 523,432 L 522,433 L 521,433 L 520,434 L 519,434 L 517,436 L 516,436 L 512,440 L 512,441 L 509,444 L 509,445 L 508,446 L 508,447 L 507,448 L 507,450 L 506,451 L 506,453 L 505,454 L 505,472 L 506,473 L 506,475 L 507,476 L 507,478 L 508,479 L 508,480 L 509,481 L 509,482 L 511,484 L 511,485 L 513,487 L 513,488 L 521,496 L 522,496 L 523,497 L 524,497 L 526,499 L 527,499 L 528,500 L 529,500 L 530,501 L 531,501 L 532,502 L 536,502 L 536,500 L 537,499 L 537,497 L 538,496 L 538,495 L 543,490 L 549,490 L 550,491 L 552,491 L 553,492 L 554,492 L 555,493 L 556,493 L 557,494 L 559,494 L 561,496 L 562,496 L 563,497 L 564,497 L 566,499 L 567,499 L 571,503 L 572,503 L 573,504 L 574,504 L 579,509 L 580,509 L 586,515 L 587,515 L 590,518 L 591,518 L 594,521 L 595,521 L 597,523 L 598,523 L 599,524 L 600,524 L 601,525 L 602,525 L 604,527 L 606,527 L 607,528 L 608,528 L 609,529 L 611,529 L 612,530 L 614,530 L 615,531 L 622,531 L 623,532 L 634,532 L 635,531 L 641,531 L 642,530 L 644,530 L 645,529 L 647,529 L 648,528 L 649,528 L 650,527 L 651,527 L 652,526 L 653,526 L 654,525 L 655,525 L 656,524 L 657,524 L 660,521 L 661,521 L 664,518 L 664,517 L 666,515 L 666,514 L 665,513 L 664,513 L 663,514 L 659,514 L 658,515 L 640,515 L 639,514 L 635,514 L 634,513 L 631,513 L 630,512 L 628,512 L 627,511 L 626,511 L 625,510 L 624,510 L 623,509 L 622,509 L 620,507 L 619,507 L 618,506 L 617,506 L 614,503 L 613,503 L 607,497 L 607,496 L 603,492 L 603,491 L 601,489 L 601,488 L 599,486 L 599,485 L 597,483 L 597,482 L 596,481 L 596,480 L 594,478 L 594,477 L 593,476 L 593,475 L 592,474 L 592,473 L 590,471 L 590,470 L 588,468 L 588,466 L 586,464 L 586,463 L 584,461 L 584,460 L 582,458 L 582,457 L 580,455 L 580,454 L 579,453 L 579,452 L 575,448 L 575,447 L 564,436 L 563,436 L 562,435 L 561,435 L 560,434 L 559,434 L 558,433 L 557,433 L 556,432 L 555,432 L 554,431 L 551,431 L 550,430 L 547,430 L 546,429 Z" fill="#870ff6"/>
<path d="M 553,374 L 552,375 L 544,375 L 543,376 L 539,376 L 538,377 L 536,377 L 535,378 L 533,378 L 532,379 L 530,379 L 529,380 L 526,380 L 525,381 L 524,381 L 523,382 L 522,382 L 520,384 L 519,384 L 517,386 L 515,386 L 514,387 L 513,387 L 510,390 L 509,390 L 506,393 L 505,393 L 494,404 L 494,405 L 491,408 L 491,409 L 488,412 L 488,413 L 486,415 L 486,416 L 485,417 L 485,418 L 484,419 L 484,420 L 483,421 L 483,422 L 481,424 L 481,425 L 480,426 L 480,428 L 479,429 L 479,430 L 478,431 L 478,433 L 477,434 L 477,436 L 476,437 L 476,439 L 475,440 L 475,442 L 474,443 L 474,445 L 473,446 L 473,449 L 472,450 L 472,455 L 471,456 L 471,466 L 470,467 L 470,474 L 471,475 L 471,487 L 472,488 L 472,492 L 473,493 L 473,497 L 474,498 L 474,500 L 475,501 L 475,503 L 476,504 L 476,506 L 477,507 L 477,509 L 478,510 L 478,511 L 479,512 L 479,514 L 481,516 L 481,517 L 482,518 L 482,519 L 483,520 L 483,521 L 484,522 L 484,523 L 485,524 L 485,525 L 486,526 L 486,527 L 488,529 L 488,530 L 490,532 L 490,533 L 492,535 L 492,536 L 493,537 L 493,538 L 495,540 L 495,541 L 497,543 L 497,544 L 499,546 L 499,548 L 501,550 L 501,551 L 504,554 L 504,555 L 505,556 L 505,558 L 507,560 L 507,562 L 508,563 L 508,564 L 510,566 L 510,567 L 511,568 L 511,570 L 512,571 L 512,573 L 513,574 L 513,576 L 514,577 L 514,579 L 515,580 L 515,582 L 516,583 L 516,586 L 517,587 L 517,591 L 518,592 L 518,606 L 517,607 L 517,610 L 516,611 L 516,613 L 515,614 L 515,616 L 514,617 L 514,621 L 513,622 L 513,628 L 515,630 L 520,630 L 521,629 L 522,629 L 523,628 L 524,628 L 526,626 L 527,626 L 530,623 L 531,623 L 532,622 L 532,621 L 533,620 L 534,620 L 535,619 L 535,618 L 540,613 L 540,612 L 541,611 L 541,610 L 543,608 L 543,607 L 545,605 L 545,604 L 546,603 L 546,601 L 547,600 L 547,599 L 548,598 L 548,597 L 549,596 L 549,594 L 550,593 L 550,592 L 551,591 L 551,588 L 552,587 L 552,583 L 553,582 L 553,559 L 552,558 L 552,555 L 551,554 L 551,551 L 550,550 L 550,549 L 549,548 L 549,546 L 548,545 L 548,544 L 547,543 L 547,542 L 546,541 L 546,540 L 545,539 L 545,538 L 544,537 L 544,536 L 541,533 L 541,532 L 539,530 L 539,529 L 537,527 L 537,526 L 532,521 L 532,520 L 526,514 L 526,513 L 525,513 L 517,505 L 517,504 L 510,497 L 510,496 L 507,493 L 507,492 L 504,489 L 504,488 L 503,487 L 503,486 L 502,485 L 502,484 L 500,482 L 500,480 L 498,478 L 498,476 L 497,475 L 497,472 L 496,471 L 496,451 L 497,450 L 497,447 L 498,446 L 498,444 L 499,443 L 499,441 L 500,440 L 500,439 L 502,437 L 502,436 L 503,435 L 503,434 L 504,433 L 504,432 L 509,427 L 510,427 L 510,426 L 514,422 L 515,422 L 518,419 L 520,419 L 521,418 L 522,418 L 523,417 L 525,417 L 526,416 L 528,416 L 529,415 L 546,415 L 547,416 L 549,416 L 550,417 L 552,417 L 553,418 L 555,418 L 556,419 L 558,419 L 559,420 L 560,420 L 562,422 L 563,422 L 565,424 L 566,424 L 568,426 L 569,426 L 572,429 L 573,429 L 574,430 L 574,431 L 575,431 L 576,432 L 575,433 L 576,433 L 584,441 L 584,442 L 586,444 L 586,445 L 590,449 L 590,450 L 591,451 L 591,452 L 593,454 L 593,455 L 595,457 L 595,458 L 597,460 L 597,461 L 598,462 L 598,463 L 600,465 L 600,466 L 602,468 L 602,469 L 604,471 L 604,472 L 606,474 L 606,475 L 609,478 L 609,479 L 614,484 L 614,485 L 618,489 L 619,489 L 622,492 L 623,492 L 626,495 L 627,495 L 628,496 L 629,496 L 630,497 L 632,497 L 633,498 L 634,498 L 635,499 L 637,499 L 638,500 L 641,500 L 642,501 L 650,501 L 651,502 L 654,502 L 655,501 L 663,501 L 664,500 L 667,500 L 668,499 L 670,499 L 671,498 L 672,498 L 673,497 L 675,497 L 676,496 L 679,496 L 679,495 L 680,494 L 681,494 L 683,492 L 684,492 L 686,490 L 687,490 L 690,487 L 691,487 L 694,484 L 694,483 L 699,478 L 699,477 L 701,475 L 701,474 L 703,472 L 703,471 L 704,470 L 704,469 L 705,468 L 705,467 L 706,466 L 706,465 L 707,464 L 707,462 L 708,461 L 708,459 L 709,458 L 709,456 L 710,455 L 710,452 L 711,451 L 711,448 L 712,447 L 712,426 L 711,425 L 711,422 L 710,421 L 710,418 L 709,417 L 709,416 L 708,415 L 708,414 L 706,414 L 705,415 L 705,418 L 704,419 L 704,420 L 703,421 L 703,422 L 698,427 L 697,427 L 696,428 L 694,428 L 693,429 L 677,429 L 676,428 L 671,428 L 670,427 L 668,427 L 667,426 L 666,426 L 665,425 L 663,425 L 662,424 L 660,424 L 659,423 L 658,423 L 657,422 L 655,422 L 654,421 L 653,421 L 652,420 L 651,420 L 650,419 L 649,419 L 648,418 L 647,418 L 646,417 L 645,417 L 643,415 L 642,415 L 641,414 L 640,414 L 639,413 L 638,413 L 636,411 L 635,411 L 633,409 L 632,409 L 630,407 L 629,407 L 627,405 L 626,405 L 624,403 L 623,403 L 620,400 L 619,400 L 617,398 L 616,398 L 613,395 L 612,395 L 610,393 L 609,393 L 608,392 L 607,392 L 604,389 L 603,389 L 601,387 L 600,387 L 599,386 L 597,386 L 595,384 L 594,384 L 593,383 L 592,383 L 591,382 L 590,382 L 589,381 L 588,381 L 587,380 L 586,380 L 585,379 L 583,379 L 582,378 L 580,378 L 579,377 L 576,377 L 575,376 L 573,376 L 572,375 L 565,375 L 564,374 Z" fill="#860cf7"/>
<path d="M 532,360 L 531,361 L 519,361 L 518,362 L 513,362 L 512,363 L 508,363 L 507,364 L 504,364 L 503,365 L 499,365 L 498,366 L 495,366 L 494,367 L 492,367 L 491,368 L 488,368 L 487,369 L 486,369 L 485,370 L 483,370 L 482,371 L 480,371 L 479,372 L 476,372 L 475,373 L 474,373 L 473,374 L 471,374 L 469,376 L 467,376 L 466,377 L 465,377 L 464,378 L 463,378 L 462,379 L 461,379 L 460,380 L 458,380 L 456,382 L 455,382 L 454,383 L 453,383 L 452,384 L 451,384 L 449,386 L 447,386 L 446,387 L 445,387 L 443,389 L 442,389 L 440,391 L 439,391 L 437,393 L 436,393 L 434,395 L 433,395 L 431,397 L 430,397 L 427,400 L 426,400 L 418,408 L 417,408 L 416,409 L 416,410 L 410,416 L 410,417 L 408,419 L 408,420 L 406,422 L 406,423 L 405,424 L 405,425 L 403,427 L 403,428 L 402,429 L 402,430 L 401,431 L 401,433 L 400,434 L 400,437 L 399,438 L 399,441 L 398,442 L 398,458 L 399,459 L 399,463 L 400,464 L 400,468 L 401,469 L 401,471 L 402,472 L 402,474 L 403,475 L 403,476 L 404,477 L 404,479 L 405,480 L 405,481 L 406,482 L 406,483 L 407,484 L 407,486 L 409,488 L 409,489 L 410,490 L 410,491 L 412,493 L 412,494 L 415,497 L 415,498 L 416,499 L 416,500 L 427,511 L 428,511 L 432,515 L 433,515 L 434,516 L 434,517 L 437,517 L 438,518 L 439,518 L 440,519 L 441,519 L 442,520 L 443,520 L 444,521 L 446,521 L 447,522 L 451,522 L 452,523 L 462,523 L 463,522 L 465,522 L 467,520 L 467,519 L 468,518 L 468,515 L 467,514 L 467,511 L 466,510 L 466,509 L 465,508 L 465,506 L 464,505 L 464,504 L 463,503 L 463,502 L 462,501 L 462,498 L 461,497 L 461,495 L 460,494 L 460,491 L 459,490 L 459,488 L 458,487 L 458,484 L 457,483 L 457,479 L 456,478 L 456,469 L 455,468 L 455,456 L 456,455 L 456,448 L 457,447 L 457,442 L 458,441 L 458,439 L 459,438 L 459,435 L 460,434 L 460,433 L 461,432 L 461,428 L 462,427 L 462,426 L 463,425 L 463,424 L 464,423 L 464,422 L 465,421 L 465,420 L 466,419 L 466,418 L 467,417 L 467,416 L 468,415 L 468,414 L 469,413 L 470,413 L 470,411 L 473,408 L 473,407 L 475,405 L 475,404 L 490,389 L 491,389 L 494,386 L 495,386 L 497,384 L 498,384 L 500,382 L 501,382 L 502,381 L 503,381 L 505,379 L 506,379 L 507,378 L 508,378 L 509,377 L 511,377 L 512,376 L 513,376 L 514,375 L 515,375 L 516,374 L 518,374 L 519,373 L 520,373 L 521,372 L 523,372 L 524,371 L 527,371 L 528,370 L 531,370 L 532,369 L 536,369 L 537,368 L 542,368 L 543,367 L 550,367 L 551,366 L 552,366 L 553,367 L 561,367 L 562,366 L 562,365 L 561,364 L 560,364 L 559,363 L 552,363 L 551,362 L 545,362 L 544,361 L 535,361 L 534,360 Z" fill="#870ff6"/>
<path d="M 1232,334 L 1231,335 L 1223,335 L 1222,336 L 1218,336 L 1217,337 L 1211,337 L 1210,338 L 1208,338 L 1207,339 L 1204,339 L 1203,340 L 1201,340 L 1200,341 L 1198,341 L 1197,342 L 1196,342 L 1195,343 L 1194,343 L 1193,344 L 1191,344 L 1190,345 L 1189,345 L 1188,346 L 1187,346 L 1186,347 L 1185,347 L 1184,348 L 1183,348 L 1182,349 L 1181,349 L 1179,351 L 1178,351 L 1177,352 L 1176,352 L 1175,353 L 1174,353 L 1173,354 L 1172,354 L 1168,358 L 1167,358 L 1165,360 L 1164,360 L 1161,363 L 1160,363 L 1145,378 L 1145,379 L 1141,383 L 1141,384 L 1138,387 L 1138,388 L 1135,391 L 1135,393 L 1132,396 L 1132,397 L 1131,398 L 1131,400 L 1130,401 L 1130,402 L 1129,403 L 1129,404 L 1128,405 L 1128,406 L 1127,407 L 1127,408 L 1126,409 L 1126,410 L 1125,411 L 1125,413 L 1124,414 L 1124,416 L 1123,417 L 1123,420 L 1122,421 L 1122,424 L 1121,425 L 1121,428 L 1120,429 L 1120,435 L 1119,436 L 1119,443 L 1118,444 L 1118,460 L 1119,461 L 1119,467 L 1120,468 L 1120,473 L 1121,474 L 1121,476 L 1122,477 L 1122,480 L 1123,481 L 1123,483 L 1124,484 L 1124,486 L 1125,487 L 1125,488 L 1126,489 L 1126,490 L 1127,491 L 1127,492 L 1128,493 L 1128,494 L 1129,495 L 1129,497 L 1130,498 L 1130,499 L 1131,500 L 1131,501 L 1136,506 L 1136,507 L 1142,513 L 1142,514 L 1143,515 L 1144,515 L 1145,516 L 1145,517 L 1146,517 L 1149,520 L 1150,520 L 1153,523 L 1154,523 L 1156,525 L 1157,525 L 1159,527 L 1160,527 L 1161,528 L 1162,528 L 1163,529 L 1164,529 L 1165,530 L 1166,530 L 1167,531 L 1169,531 L 1170,532 L 1171,532 L 1172,533 L 1173,533 L 1174,534 L 1176,534 L 1177,535 L 1179,535 L 1180,536 L 1182,536 L 1183,537 L 1186,537 L 1187,538 L 1193,538 L 1194,539 L 1204,539 L 1205,540 L 1217,540 L 1218,539 L 1229,539 L 1230,538 L 1235,538 L 1236,537 L 1239,537 L 1240,536 L 1243,536 L 1244,535 L 1246,535 L 1247,534 L 1249,534 L 1250,533 L 1252,533 L 1253,532 L 1255,532 L 1256,531 L 1257,531 L 1258,530 L 1260,530 L 1261,529 L 1263,529 L 1264,528 L 1265,528 L 1267,526 L 1268,526 L 1269,525 L 1270,525 L 1271,524 L 1272,524 L 1274,522 L 1275,522 L 1276,521 L 1277,521 L 1280,518 L 1281,518 L 1282,517 L 1283,517 L 1286,514 L 1287,514 L 1291,510 L 1292,510 L 1307,495 L 1307,494 L 1310,491 L 1310,490 L 1311,489 L 1311,488 L 1314,485 L 1314,484 L 1316,482 L 1316,481 L 1317,480 L 1317,479 L 1318,478 L 1318,477 L 1319,476 L 1319,475 L 1321,473 L 1321,471 L 1322,470 L 1322,469 L 1323,468 L 1323,467 L 1324,466 L 1324,464 L 1325,463 L 1325,462 L 1326,461 L 1326,459 L 1327,458 L 1327,456 L 1328,455 L 1328,452 L 1329,451 L 1329,448 L 1330,447 L 1330,443 L 1331,442 L 1331,433 L 1332,432 L 1332,416 L 1331,415 L 1331,414 L 1332,413 L 1332,411 L 1331,410 L 1331,406 L 1330,405 L 1330,401 L 1329,400 L 1329,397 L 1328,396 L 1328,394 L 1327,393 L 1327,391 L 1326,390 L 1326,389 L 1325,388 L 1325,386 L 1324,385 L 1324,383 L 1323,382 L 1323,381 L 1321,379 L 1321,377 L 1319,375 L 1319,374 L 1317,372 L 1317,371 L 1315,369 L 1315,368 L 1311,364 L 1311,363 L 1302,354 L 1301,354 L 1298,351 L 1297,351 L 1295,349 L 1294,349 L 1292,347 L 1291,347 L 1290,346 L 1289,346 L 1287,344 L 1285,344 L 1284,343 L 1283,343 L 1282,342 L 1281,342 L 1280,341 L 1279,341 L 1278,340 L 1276,340 L 1275,339 L 1273,339 L 1272,338 L 1269,338 L 1268,337 L 1263,337 L 1262,336 L 1260,336 L 1259,335 L 1251,335 L 1250,334 Z" fill="#f456f5"/>
<path d="M 1374,309 L 1373,310 L 1367,310 L 1366,311 L 1363,311 L 1362,312 L 1359,312 L 1358,313 L 1356,313 L 1355,314 L 1354,314 L 1353,315 L 1352,315 L 1351,316 L 1349,316 L 1348,317 L 1347,317 L 1346,318 L 1345,318 L 1344,319 L 1343,319 L 1342,320 L 1341,320 L 1339,322 L 1338,322 L 1337,323 L 1336,323 L 1334,325 L 1333,325 L 1331,327 L 1330,327 L 1324,333 L 1323,333 L 1317,339 L 1317,340 L 1316,341 L 1316,342 L 1315,343 L 1315,345 L 1319,349 L 1320,349 L 1330,359 L 1330,360 L 1331,361 L 1331,362 L 1333,364 L 1333,365 L 1334,366 L 1334,367 L 1336,369 L 1336,370 L 1337,371 L 1337,372 L 1338,373 L 1338,374 L 1340,376 L 1340,377 L 1341,377 L 1342,378 L 1343,378 L 1345,376 L 1346,376 L 1347,375 L 1348,375 L 1350,373 L 1351,373 L 1353,371 L 1354,371 L 1356,369 L 1357,369 L 1358,368 L 1359,368 L 1360,367 L 1361,367 L 1362,366 L 1364,366 L 1365,365 L 1367,365 L 1368,364 L 1371,364 L 1372,363 L 1385,363 L 1386,364 L 1387,364 L 1388,365 L 1389,365 L 1390,366 L 1391,366 L 1396,371 L 1396,372 L 1397,373 L 1397,378 L 1398,379 L 1398,402 L 1397,403 L 1397,414 L 1396,415 L 1396,424 L 1395,425 L 1395,431 L 1394,432 L 1394,439 L 1393,440 L 1393,448 L 1392,449 L 1392,456 L 1391,457 L 1391,469 L 1390,470 L 1390,498 L 1391,499 L 1391,506 L 1392,507 L 1392,510 L 1393,511 L 1393,514 L 1394,515 L 1394,517 L 1395,518 L 1395,519 L 1396,520 L 1396,521 L 1398,523 L 1398,524 L 1400,526 L 1400,527 L 1405,532 L 1406,532 L 1408,534 L 1409,534 L 1411,536 L 1412,536 L 1413,537 L 1414,537 L 1415,538 L 1417,538 L 1418,539 L 1422,539 L 1423,540 L 1427,540 L 1428,541 L 1441,541 L 1442,540 L 1445,540 L 1446,539 L 1450,539 L 1451,538 L 1452,538 L 1453,537 L 1455,537 L 1456,536 L 1457,536 L 1458,535 L 1459,535 L 1461,533 L 1462,533 L 1464,531 L 1465,531 L 1468,528 L 1469,528 L 1476,521 L 1476,520 L 1480,516 L 1480,515 L 1484,511 L 1484,510 L 1485,509 L 1485,508 L 1487,506 L 1487,505 L 1489,503 L 1489,502 L 1490,501 L 1490,500 L 1491,499 L 1491,498 L 1492,497 L 1492,496 L 1493,495 L 1493,494 L 1495,492 L 1495,491 L 1496,490 L 1496,489 L 1497,488 L 1497,487 L 1498,486 L 1498,485 L 1500,483 L 1500,480 L 1501,479 L 1501,478 L 1502,477 L 1502,476 L 1503,475 L 1503,474 L 1504,473 L 1504,471 L 1505,470 L 1505,468 L 1506,467 L 1506,466 L 1507,465 L 1507,463 L 1508,462 L 1508,461 L 1509,460 L 1509,459 L 1510,458 L 1510,456 L 1511,455 L 1511,454 L 1512,453 L 1512,451 L 1513,450 L 1513,449 L 1514,448 L 1514,447 L 1515,446 L 1515,444 L 1516,443 L 1516,441 L 1517,440 L 1517,439 L 1518,438 L 1518,437 L 1519,436 L 1519,435 L 1520,434 L 1520,433 L 1521,432 L 1522,433 L 1522,481 L 1523,482 L 1523,492 L 1524,493 L 1524,498 L 1525,499 L 1525,502 L 1526,503 L 1526,507 L 1527,508 L 1527,510 L 1528,511 L 1528,513 L 1529,514 L 1529,515 L 1530,516 L 1530,517 L 1531,518 L 1531,520 L 1533,522 L 1533,523 L 1535,525 L 1535,526 L 1537,528 L 1537,529 L 1538,530 L 1539,530 L 1543,534 L 1544,534 L 1545,535 L 1546,535 L 1547,536 L 1548,536 L 1549,537 L 1549,538 L 1553,538 L 1554,539 L 1558,539 L 1559,540 L 1570,540 L 1571,539 L 1576,539 L 1577,538 L 1579,538 L 1580,537 L 1581,537 L 1582,536 L 1583,536 L 1584,535 L 1585,535 L 1586,534 L 1587,534 L 1589,532 L 1590,532 L 1592,530 L 1593,530 L 1605,518 L 1605,517 L 1609,513 L 1609,512 L 1612,509 L 1612,508 L 1615,505 L 1615,504 L 1616,503 L 1616,502 L 1618,500 L 1618,499 L 1619,498 L 1619,497 L 1620,496 L 1620,495 L 1622,493 L 1622,492 L 1623,491 L 1623,490 L 1625,488 L 1625,487 L 1626,486 L 1626,484 L 1627,483 L 1627,482 L 1629,480 L 1629,479 L 1630,478 L 1630,476 L 1631,475 L 1631,474 L 1632,473 L 1632,472 L 1633,471 L 1633,470 L 1634,469 L 1634,467 L 1636,465 L 1636,463 L 1637,462 L 1637,461 L 1638,460 L 1638,459 L 1639,458 L 1639,456 L 1640,455 L 1640,453 L 1642,451 L 1642,449 L 1643,448 L 1643,447 L 1644,446 L 1644,445 L 1645,444 L 1645,442 L 1646,441 L 1646,440 L 1647,439 L 1647,438 L 1648,437 L 1648,435 L 1649,434 L 1649,433 L 1650,432 L 1650,430 L 1651,429 L 1651,428 L 1652,427 L 1652,425 L 1653,424 L 1653,422 L 1654,421 L 1654,419 L 1655,418 L 1655,416 L 1656,415 L 1656,414 L 1657,413 L 1657,412 L 1658,411 L 1658,409 L 1659,408 L 1659,407 L 1660,406 L 1660,405 L 1661,404 L 1661,402 L 1662,401 L 1662,400 L 1664,398 L 1664,397 L 1665,396 L 1665,395 L 1666,394 L 1666,393 L 1667,392 L 1667,391 L 1668,390 L 1669,390 L 1669,388 L 1670,387 L 1670,386 L 1674,382 L 1674,381 L 1681,374 L 1682,374 L 1686,370 L 1687,370 L 1688,369 L 1690,369 L 1692,367 L 1693,367 L 1694,366 L 1697,366 L 1698,365 L 1710,365 L 1713,362 L 1713,361 L 1714,360 L 1714,358 L 1715,357 L 1715,356 L 1716,355 L 1716,354 L 1717,353 L 1717,351 L 1718,350 L 1718,349 L 1719,348 L 1719,346 L 1720,345 L 1720,344 L 1721,343 L 1721,341 L 1722,340 L 1722,339 L 1723,338 L 1723,337 L 1724,336 L 1724,334 L 1725,333 L 1725,330 L 1726,329 L 1726,328 L 1727,327 L 1727,326 L 1728,325 L 1728,324 L 1729,323 L 1729,322 L 1730,321 L 1730,318 L 1731,317 L 1730,316 L 1685,316 L 1684,317 L 1679,317 L 1678,318 L 1676,318 L 1675,319 L 1673,319 L 1672,320 L 1671,320 L 1670,321 L 1669,321 L 1668,322 L 1667,322 L 1666,323 L 1664,323 L 1663,324 L 1662,324 L 1661,325 L 1660,325 L 1659,326 L 1658,326 L 1656,328 L 1655,328 L 1653,330 L 1652,330 L 1649,333 L 1648,333 L 1643,338 L 1642,338 L 1633,347 L 1633,348 L 1628,353 L 1628,354 L 1626,356 L 1626,357 L 1625,358 L 1624,358 L 1624,359 L 1623,360 L 1623,361 L 1621,363 L 1621,365 L 1619,367 L 1619,369 L 1618,370 L 1618,371 L 1617,372 L 1617,373 L 1616,374 L 1616,375 L 1615,376 L 1615,377 L 1614,378 L 1614,380 L 1613,381 L 1613,382 L 1612,383 L 1612,384 L 1610,386 L 1610,388 L 1609,389 L 1609,390 L 1608,391 L 1608,392 L 1607,393 L 1607,395 L 1606,396 L 1606,397 L 1605,398 L 1605,400 L 1604,401 L 1604,402 L 1602,404 L 1602,406 L 1601,407 L 1601,408 L 1599,410 L 1599,413 L 1597,415 L 1597,416 L 1596,417 L 1596,419 L 1595,420 L 1595,421 L 1593,423 L 1593,425 L 1592,426 L 1592,427 L 1591,428 L 1591,430 L 1590,431 L 1590,432 L 1589,433 L 1589,434 L 1588,435 L 1588,436 L 1587,437 L 1587,438 L 1586,439 L 1586,441 L 1585,442 L 1585,443 L 1584,444 L 1584,445 L 1583,446 L 1583,447 L 1582,448 L 1582,449 L 1581,450 L 1581,451 L 1580,452 L 1580,453 L 1579,454 L 1579,456 L 1578,457 L 1578,458 L 1577,459 L 1577,460 L 1576,461 L 1576,463 L 1575,464 L 1575,465 L 1574,466 L 1574,467 L 1573,468 L 1573,469 L 1570,472 L 1569,472 L 1568,471 L 1568,461 L 1567,460 L 1567,428 L 1568,427 L 1568,411 L 1567,410 L 1567,388 L 1566,387 L 1566,379 L 1565,378 L 1565,375 L 1564,374 L 1564,370 L 1563,369 L 1563,368 L 1562,367 L 1562,365 L 1561,364 L 1561,363 L 1558,360 L 1558,359 L 1557,358 L 1556,358 L 1553,355 L 1552,355 L 1551,354 L 1550,354 L 1549,353 L 1548,353 L 1547,352 L 1545,352 L 1544,351 L 1527,351 L 1526,352 L 1524,352 L 1523,353 L 1522,353 L 1521,354 L 1520,354 L 1519,355 L 1517,355 L 1514,358 L 1513,358 L 1511,360 L 1510,360 L 1500,370 L 1500,371 L 1499,372 L 1498,372 L 1498,373 L 1496,375 L 1496,376 L 1494,378 L 1494,379 L 1491,382 L 1491,383 L 1490,384 L 1490,385 L 1488,387 L 1488,388 L 1486,390 L 1486,392 L 1484,394 L 1484,395 L 1483,396 L 1483,397 L 1482,398 L 1482,399 L 1481,400 L 1481,401 L 1480,402 L 1480,403 L 1478,405 L 1478,407 L 1477,408 L 1477,409 L 1476,410 L 1476,411 L 1475,412 L 1475,413 L 1474,414 L 1474,415 L 1473,416 L 1473,417 L 1472,418 L 1472,420 L 1471,421 L 1471,422 L 1470,423 L 1470,424 L 1469,425 L 1469,426 L 1468,427 L 1468,429 L 1467,430 L 1467,431 L 1466,432 L 1466,433 L 1465,434 L 1465,435 L 1464,436 L 1464,437 L 1463,438 L 1463,439 L 1462,440 L 1462,441 L 1461,442 L 1461,444 L 1460,445 L 1460,446 L 1459,447 L 1459,448 L 1458,449 L 1458,450 L 1457,451 L 1457,452 L 1456,453 L 1456,455 L 1454,457 L 1454,459 L 1453,460 L 1453,461 L 1452,462 L 1452,463 L 1450,465 L 1450,466 L 1448,468 L 1448,469 L 1447,470 L 1447,471 L 1446,472 L 1446,473 L 1445,474 L 1444,473 L 1444,466 L 1445,465 L 1445,458 L 1446,457 L 1446,452 L 1447,451 L 1447,445 L 1448,444 L 1448,438 L 1449,437 L 1449,431 L 1450,430 L 1450,421 L 1451,420 L 1451,415 L 1452,414 L 1452,405 L 1453,404 L 1453,396 L 1454,395 L 1454,379 L 1453,378 L 1453,371 L 1452,370 L 1452,365 L 1451,364 L 1451,361 L 1450,360 L 1450,357 L 1449,356 L 1449,354 L 1448,353 L 1448,352 L 1447,351 L 1447,350 L 1446,349 L 1446,348 L 1445,347 L 1445,346 L 1444,345 L 1444,344 L 1442,342 L 1442,341 L 1441,340 L 1441,339 L 1438,336 L 1438,335 L 1427,324 L 1426,324 L 1423,321 L 1422,321 L 1421,320 L 1420,320 L 1418,318 L 1417,318 L 1416,317 L 1415,317 L 1414,316 L 1412,316 L 1411,315 L 1410,315 L 1409,314 L 1408,314 L 1407,313 L 1406,313 L 1405,312 L 1402,312 L 1401,311 L 1399,311 L 1398,310 L 1391,310 L 1390,309 Z" fill="#f12cf3"/>
<path d="M 287,295 L 286,296 L 285,296 L 284,297 L 283,297 L 279,301 L 278,301 L 274,305 L 274,306 L 268,312 L 268,313 L 267,314 L 267,315 L 263,319 L 263,320 L 261,322 L 261,323 L 260,324 L 260,325 L 258,327 L 258,328 L 255,331 L 255,333 L 253,335 L 253,336 L 252,337 L 252,338 L 251,339 L 251,340 L 249,342 L 249,344 L 248,345 L 248,346 L 247,347 L 247,348 L 246,349 L 246,350 L 245,351 L 245,352 L 244,353 L 244,354 L 243,355 L 243,357 L 242,358 L 242,359 L 241,360 L 241,362 L 240,363 L 240,366 L 239,367 L 239,371 L 238,372 L 238,376 L 237,377 L 237,381 L 236,382 L 236,404 L 237,405 L 237,409 L 238,410 L 238,413 L 239,414 L 239,416 L 240,417 L 240,418 L 246,424 L 247,424 L 248,425 L 252,425 L 255,422 L 255,421 L 256,420 L 256,419 L 258,417 L 258,415 L 265,408 L 265,407 L 267,405 L 268,405 L 272,401 L 272,400 L 273,399 L 274,399 L 275,398 L 276,398 L 282,392 L 283,392 L 285,390 L 286,390 L 289,387 L 290,387 L 292,385 L 293,385 L 295,383 L 296,383 L 297,382 L 298,382 L 300,380 L 301,380 L 303,378 L 304,378 L 305,377 L 306,377 L 307,376 L 308,376 L 310,374 L 311,374 L 315,370 L 315,369 L 316,368 L 316,362 L 314,360 L 314,359 L 306,351 L 305,351 L 300,346 L 300,345 L 298,343 L 298,342 L 296,340 L 296,339 L 295,338 L 295,337 L 294,336 L 294,335 L 293,334 L 293,333 L 292,332 L 292,330 L 291,329 L 291,327 L 290,326 L 290,322 L 289,321 L 289,317 L 288,316 L 288,309 L 289,308 L 289,304 L 290,303 L 290,301 L 291,300 L 291,298 L 292,297 L 292,296 L 291,295 Z" fill="#870ef6"/>
<path d="M 353,244 L 352,245 L 350,245 L 349,246 L 348,246 L 347,247 L 346,247 L 344,249 L 343,249 L 340,252 L 339,252 L 337,254 L 336,254 L 333,257 L 332,257 L 332,258 L 330,260 L 329,260 L 315,274 L 315,275 L 313,277 L 313,278 L 310,281 L 310,282 L 308,284 L 308,285 L 306,287 L 306,289 L 304,291 L 304,293 L 303,294 L 303,295 L 302,296 L 302,298 L 301,299 L 301,305 L 300,306 L 300,312 L 301,313 L 301,318 L 302,319 L 302,321 L 303,322 L 303,324 L 304,325 L 304,326 L 306,328 L 306,329 L 308,331 L 308,332 L 311,335 L 311,336 L 323,348 L 323,349 L 325,349 L 329,353 L 329,354 L 332,357 L 332,358 L 333,359 L 333,360 L 334,361 L 334,367 L 333,368 L 333,370 L 330,373 L 330,374 L 328,376 L 327,376 L 324,379 L 323,379 L 321,381 L 320,381 L 317,384 L 316,384 L 314,386 L 313,386 L 312,387 L 311,387 L 309,389 L 308,389 L 307,390 L 306,390 L 303,393 L 302,393 L 301,394 L 300,394 L 299,395 L 298,395 L 296,397 L 295,397 L 292,400 L 291,400 L 290,401 L 289,401 L 286,404 L 285,404 L 282,407 L 281,407 L 277,411 L 276,411 L 275,412 L 275,413 L 273,415 L 272,415 L 272,416 L 267,421 L 267,422 L 265,424 L 265,425 L 263,427 L 263,428 L 262,429 L 262,431 L 261,432 L 261,434 L 260,435 L 260,449 L 261,450 L 261,451 L 262,452 L 262,453 L 265,456 L 265,457 L 269,461 L 270,461 L 271,462 L 272,462 L 275,465 L 276,465 L 277,466 L 278,466 L 279,467 L 280,467 L 281,468 L 283,468 L 284,469 L 287,469 L 288,470 L 290,470 L 291,471 L 295,471 L 296,472 L 306,472 L 307,471 L 308,472 L 309,471 L 311,471 L 312,470 L 313,470 L 313,468 L 312,467 L 312,466 L 311,465 L 311,464 L 310,463 L 310,462 L 309,461 L 309,459 L 308,458 L 308,456 L 307,455 L 307,449 L 308,448 L 308,445 L 309,444 L 309,443 L 310,442 L 310,441 L 312,439 L 312,438 L 314,436 L 314,435 L 319,430 L 319,429 L 328,420 L 328,419 L 329,418 L 330,418 L 335,413 L 335,412 L 336,411 L 337,411 L 346,402 L 347,402 L 349,400 L 349,399 L 350,398 L 351,398 L 354,395 L 355,395 L 356,394 L 356,393 L 357,392 L 358,392 L 363,387 L 364,387 L 386,365 L 386,364 L 390,360 L 390,358 L 391,357 L 391,348 L 389,346 L 389,345 L 383,339 L 382,339 L 379,336 L 378,336 L 376,334 L 375,334 L 372,331 L 371,331 L 369,329 L 368,329 L 367,328 L 367,327 L 366,327 L 363,324 L 363,323 L 362,323 L 354,315 L 354,314 L 351,311 L 351,309 L 350,309 L 349,308 L 349,307 L 348,306 L 348,305 L 347,304 L 347,303 L 346,302 L 346,301 L 345,300 L 345,298 L 344,297 L 344,294 L 343,293 L 343,291 L 342,290 L 342,279 L 343,278 L 343,273 L 344,272 L 344,271 L 345,270 L 345,268 L 346,267 L 346,266 L 347,265 L 347,264 L 348,263 L 348,262 L 349,261 L 349,260 L 350,259 L 350,258 L 354,254 L 354,253 L 356,251 L 356,250 L 359,247 L 359,244 Z" fill="#870df7"/>
<path d="M 924,239 L 923,240 L 917,240 L 916,241 L 913,241 L 912,242 L 909,242 L 908,243 L 905,243 L 904,244 L 902,244 L 901,245 L 900,245 L 899,246 L 897,246 L 896,247 L 895,247 L 894,248 L 893,248 L 891,250 L 890,250 L 889,251 L 888,251 L 887,252 L 886,252 L 883,255 L 882,255 L 881,256 L 880,256 L 872,264 L 872,265 L 866,271 L 866,272 L 864,274 L 864,275 L 863,276 L 863,277 L 861,279 L 861,280 L 859,282 L 859,283 L 857,285 L 857,286 L 856,287 L 856,288 L 855,289 L 855,290 L 854,291 L 854,292 L 853,293 L 853,294 L 852,295 L 852,296 L 851,297 L 851,298 L 850,299 L 850,301 L 849,302 L 849,303 L 848,304 L 848,305 L 847,306 L 847,308 L 845,310 L 845,311 L 844,312 L 844,314 L 843,315 L 843,316 L 842,317 L 842,319 L 841,320 L 841,321 L 840,322 L 840,324 L 838,326 L 838,327 L 837,328 L 837,330 L 836,331 L 836,332 L 835,333 L 835,335 L 834,336 L 834,337 L 833,338 L 833,339 L 830,342 L 821,342 L 820,343 L 789,343 L 788,344 L 781,344 L 781,345 L 780,346 L 780,348 L 779,349 L 779,351 L 778,352 L 778,353 L 777,354 L 777,356 L 776,357 L 776,358 L 775,359 L 775,361 L 774,362 L 774,363 L 773,364 L 773,366 L 772,367 L 772,369 L 771,370 L 771,371 L 770,372 L 770,374 L 769,375 L 769,377 L 768,378 L 768,379 L 767,380 L 767,382 L 766,383 L 766,385 L 765,386 L 765,387 L 764,388 L 764,390 L 763,391 L 763,392 L 762,393 L 762,395 L 761,396 L 762,397 L 806,397 L 808,399 L 808,402 L 807,403 L 807,404 L 806,405 L 806,407 L 805,408 L 805,409 L 804,410 L 804,411 L 803,412 L 803,414 L 802,415 L 802,417 L 801,418 L 801,419 L 800,420 L 800,422 L 799,423 L 799,424 L 798,425 L 798,428 L 797,429 L 797,430 L 796,431 L 796,432 L 795,433 L 795,435 L 794,436 L 794,438 L 793,439 L 793,442 L 792,443 L 792,444 L 791,445 L 791,447 L 790,448 L 790,449 L 789,450 L 789,452 L 788,453 L 788,455 L 787,456 L 787,457 L 786,458 L 786,461 L 785,462 L 785,463 L 784,464 L 784,466 L 783,467 L 783,469 L 782,470 L 782,472 L 781,473 L 781,474 L 780,475 L 780,477 L 779,478 L 779,481 L 778,482 L 778,483 L 777,484 L 777,486 L 776,487 L 776,488 L 775,489 L 775,490 L 774,491 L 774,492 L 773,493 L 773,496 L 772,497 L 772,499 L 771,500 L 771,501 L 770,502 L 770,504 L 769,505 L 769,506 L 768,507 L 768,508 L 767,509 L 767,511 L 766,512 L 766,514 L 765,515 L 765,516 L 764,517 L 764,518 L 763,519 L 763,520 L 762,521 L 762,522 L 761,523 L 761,525 L 759,527 L 759,528 L 758,529 L 758,532 L 756,534 L 756,535 L 755,536 L 755,537 L 754,538 L 754,539 L 753,540 L 753,541 L 751,543 L 751,544 L 750,545 L 750,546 L 749,547 L 749,548 L 746,551 L 746,552 L 742,556 L 742,557 L 735,564 L 734,564 L 732,566 L 731,566 L 729,568 L 728,568 L 726,570 L 724,570 L 723,571 L 722,571 L 721,572 L 719,572 L 718,573 L 716,573 L 715,574 L 711,574 L 710,575 L 701,575 L 700,574 L 696,574 L 695,573 L 691,573 L 690,574 L 690,576 L 689,577 L 689,578 L 688,579 L 688,581 L 687,582 L 687,583 L 686,584 L 686,586 L 684,588 L 684,590 L 683,591 L 683,593 L 682,594 L 682,596 L 681,597 L 681,599 L 680,600 L 680,601 L 679,602 L 679,603 L 678,604 L 678,605 L 677,606 L 677,608 L 676,609 L 676,610 L 675,611 L 675,612 L 674,613 L 674,616 L 673,617 L 673,618 L 672,619 L 672,621 L 671,622 L 671,623 L 669,625 L 669,628 L 670,628 L 671,629 L 673,629 L 674,630 L 678,630 L 679,631 L 684,631 L 685,632 L 695,632 L 696,633 L 712,633 L 713,632 L 724,632 L 725,631 L 729,631 L 730,630 L 735,630 L 736,629 L 740,629 L 741,628 L 743,628 L 744,627 L 746,627 L 747,626 L 749,626 L 750,625 L 751,625 L 752,624 L 753,624 L 754,623 L 756,623 L 757,622 L 758,622 L 759,621 L 760,621 L 761,620 L 762,620 L 765,617 L 766,617 L 767,616 L 768,616 L 770,614 L 771,614 L 787,598 L 787,597 L 790,594 L 790,593 L 792,591 L 792,590 L 794,588 L 794,587 L 796,585 L 796,584 L 797,583 L 797,582 L 798,581 L 798,580 L 800,578 L 800,577 L 801,576 L 801,575 L 802,574 L 802,573 L 803,572 L 803,571 L 804,570 L 804,569 L 805,568 L 805,567 L 806,566 L 806,565 L 807,564 L 807,563 L 808,562 L 808,561 L 809,560 L 809,559 L 810,558 L 810,556 L 811,555 L 811,553 L 812,552 L 812,551 L 813,550 L 813,549 L 814,548 L 814,546 L 815,545 L 815,544 L 816,543 L 816,542 L 817,541 L 817,539 L 818,538 L 818,536 L 819,535 L 819,534 L 820,533 L 819,532 L 821,530 L 821,528 L 822,527 L 822,526 L 823,525 L 823,524 L 824,523 L 824,521 L 825,520 L 825,518 L 826,517 L 826,515 L 827,514 L 827,513 L 828,512 L 828,510 L 829,509 L 829,508 L 830,507 L 830,505 L 831,504 L 831,503 L 832,502 L 832,501 L 833,500 L 833,498 L 834,497 L 834,495 L 835,494 L 835,493 L 836,492 L 836,490 L 837,489 L 837,488 L 838,487 L 838,485 L 839,484 L 839,482 L 840,481 L 840,480 L 841,479 L 841,478 L 842,477 L 842,475 L 843,474 L 843,472 L 844,471 L 844,470 L 845,469 L 845,467 L 846,466 L 846,465 L 847,464 L 847,462 L 848,461 L 848,459 L 849,458 L 849,456 L 850,455 L 850,454 L 851,453 L 851,452 L 852,451 L 852,450 L 853,449 L 853,447 L 854,446 L 854,444 L 855,443 L 855,441 L 856,440 L 856,439 L 857,438 L 857,437 L 858,436 L 858,434 L 859,433 L 859,432 L 860,431 L 860,429 L 861,428 L 861,426 L 862,425 L 862,424 L 863,423 L 863,421 L 864,420 L 864,419 L 865,418 L 865,417 L 866,416 L 866,414 L 867,413 L 867,412 L 868,411 L 868,408 L 869,407 L 869,406 L 870,405 L 870,404 L 871,403 L 871,401 L 874,398 L 885,398 L 886,397 L 911,397 L 912,396 L 912,395 L 913,394 L 913,392 L 914,391 L 914,390 L 915,389 L 915,387 L 916,386 L 916,384 L 917,383 L 917,382 L 918,381 L 918,379 L 919,378 L 919,377 L 920,376 L 920,374 L 921,373 L 921,372 L 922,371 L 922,369 L 923,368 L 923,366 L 924,365 L 924,363 L 925,362 L 926,362 L 926,359 L 927,358 L 927,356 L 928,355 L 928,354 L 929,353 L 929,351 L 930,350 L 930,349 L 931,348 L 931,345 L 932,344 L 932,343 L 931,342 L 930,343 L 928,343 L 927,342 L 908,342 L 907,343 L 906,342 L 897,342 L 896,341 L 896,340 L 897,339 L 897,338 L 898,337 L 898,335 L 899,334 L 899,332 L 900,331 L 900,330 L 901,329 L 901,327 L 902,326 L 902,325 L 903,324 L 903,322 L 904,321 L 904,320 L 905,319 L 905,318 L 906,317 L 906,316 L 907,315 L 907,314 L 908,313 L 908,312 L 910,310 L 910,308 L 911,307 L 912,307 L 913,306 L 913,305 L 914,304 L 914,303 L 917,300 L 918,300 L 919,299 L 920,299 L 922,297 L 923,297 L 925,295 L 926,295 L 927,294 L 930,294 L 931,293 L 950,293 L 951,294 L 956,294 L 957,295 L 958,295 L 959,296 L 962,296 L 963,297 L 965,297 L 966,298 L 968,298 L 968,297 L 969,296 L 969,295 L 970,294 L 970,293 L 971,292 L 971,291 L 972,290 L 972,288 L 973,287 L 973,285 L 974,284 L 974,283 L 975,282 L 975,281 L 976,280 L 976,279 L 977,278 L 977,277 L 978,276 L 978,274 L 979,273 L 979,272 L 980,271 L 980,269 L 981,268 L 981,267 L 982,266 L 982,265 L 983,264 L 983,262 L 984,261 L 984,260 L 985,259 L 985,258 L 986,257 L 986,256 L 987,255 L 987,253 L 988,252 L 988,250 L 989,249 L 989,248 L 990,247 L 989,246 L 987,246 L 986,245 L 984,245 L 983,244 L 979,244 L 978,243 L 975,243 L 974,242 L 970,242 L 969,241 L 965,241 L 964,240 L 957,240 L 956,239 Z" fill="#f12cf3"/>
<path d="M 431,224 L 430,225 L 413,225 L 412,226 L 405,226 L 404,227 L 400,227 L 399,228 L 396,228 L 395,229 L 393,229 L 392,230 L 391,230 L 389,232 L 388,232 L 387,233 L 386,233 L 386,235 L 385,236 L 384,236 L 383,237 L 383,238 L 381,240 L 380,240 L 380,241 L 379,242 L 379,243 L 378,244 L 378,245 L 375,248 L 375,249 L 373,251 L 373,253 L 372,254 L 372,255 L 371,256 L 371,257 L 370,258 L 370,259 L 369,260 L 369,261 L 368,262 L 368,264 L 367,265 L 367,267 L 366,268 L 366,271 L 365,272 L 365,277 L 364,278 L 364,288 L 365,289 L 365,295 L 366,296 L 366,298 L 367,299 L 367,301 L 368,302 L 368,303 L 369,304 L 369,305 L 370,306 L 370,307 L 372,309 L 372,310 L 373,311 L 373,312 L 377,316 L 377,317 L 389,329 L 390,329 L 394,333 L 395,333 L 397,335 L 399,335 L 402,338 L 403,338 L 406,341 L 407,341 L 414,348 L 414,349 L 415,350 L 415,351 L 414,352 L 414,354 L 411,357 L 411,358 L 410,359 L 409,359 L 401,367 L 400,367 L 395,372 L 394,372 L 390,376 L 389,376 L 389,377 L 387,379 L 385,379 L 385,380 L 376,389 L 375,389 L 374,390 L 374,391 L 372,393 L 371,393 L 370,394 L 369,394 L 369,395 L 366,398 L 366,399 L 365,400 L 364,400 L 359,405 L 359,406 L 349,416 L 349,417 L 348,418 L 347,418 L 347,419 L 344,422 L 344,423 L 341,426 L 341,427 L 337,431 L 337,432 L 336,433 L 336,434 L 333,437 L 333,438 L 332,439 L 332,441 L 331,442 L 331,443 L 330,444 L 330,446 L 329,447 L 329,448 L 328,449 L 328,462 L 329,463 L 329,464 L 330,465 L 330,467 L 332,469 L 332,470 L 336,474 L 339,474 L 340,475 L 350,475 L 351,476 L 356,476 L 357,477 L 359,477 L 360,478 L 362,478 L 363,479 L 364,479 L 365,480 L 367,480 L 368,481 L 369,481 L 370,482 L 372,482 L 373,483 L 374,483 L 375,484 L 377,484 L 380,487 L 381,487 L 382,488 L 383,488 L 385,490 L 386,490 L 388,492 L 389,492 L 390,493 L 392,493 L 392,491 L 391,490 L 391,489 L 390,488 L 390,487 L 387,484 L 387,483 L 386,482 L 386,481 L 385,480 L 385,479 L 384,478 L 384,475 L 383,474 L 383,473 L 382,472 L 382,470 L 381,469 L 381,465 L 380,464 L 380,458 L 379,457 L 379,451 L 380,450 L 380,442 L 381,441 L 381,438 L 382,437 L 382,435 L 383,434 L 383,433 L 384,432 L 384,428 L 386,426 L 386,425 L 387,424 L 387,423 L 388,422 L 388,421 L 390,419 L 390,418 L 391,417 L 391,416 L 395,412 L 395,411 L 396,410 L 397,410 L 397,409 L 398,408 L 398,407 L 400,405 L 401,405 L 405,401 L 405,400 L 406,399 L 407,399 L 412,394 L 413,394 L 417,390 L 418,390 L 420,388 L 421,388 L 424,385 L 425,385 L 426,384 L 427,384 L 428,383 L 429,383 L 431,381 L 432,381 L 433,380 L 434,380 L 436,378 L 437,378 L 438,377 L 439,377 L 440,376 L 441,376 L 442,375 L 443,375 L 444,374 L 445,374 L 446,373 L 448,373 L 450,371 L 452,371 L 453,370 L 454,370 L 455,369 L 457,369 L 458,368 L 459,368 L 460,367 L 462,367 L 463,366 L 465,366 L 466,365 L 467,365 L 468,364 L 470,364 L 471,363 L 474,363 L 475,362 L 477,362 L 478,361 L 480,361 L 481,360 L 484,360 L 485,359 L 487,359 L 488,358 L 491,358 L 492,357 L 496,357 L 497,356 L 502,356 L 503,355 L 507,355 L 508,354 L 513,354 L 514,353 L 520,353 L 521,352 L 528,352 L 529,351 L 538,351 L 538,350 L 537,350 L 536,349 L 535,349 L 534,348 L 532,348 L 531,347 L 529,347 L 528,346 L 525,346 L 524,345 L 520,345 L 519,344 L 514,344 L 513,343 L 508,343 L 507,342 L 502,342 L 501,341 L 496,341 L 495,340 L 488,340 L 487,339 L 482,339 L 481,338 L 475,338 L 474,337 L 468,337 L 467,336 L 464,336 L 463,335 L 459,335 L 458,334 L 456,334 L 455,333 L 453,333 L 452,332 L 450,332 L 449,331 L 448,331 L 447,330 L 444,330 L 443,329 L 442,329 L 441,328 L 440,328 L 439,327 L 438,327 L 436,325 L 435,325 L 433,323 L 432,323 L 431,322 L 430,322 L 421,313 L 421,312 L 419,310 L 419,309 L 418,308 L 418,307 L 416,305 L 416,304 L 415,303 L 415,302 L 414,301 L 414,299 L 413,298 L 413,295 L 412,294 L 412,275 L 413,274 L 413,272 L 414,271 L 414,269 L 415,268 L 415,266 L 416,265 L 416,264 L 417,263 L 417,262 L 418,261 L 418,260 L 419,259 L 419,258 L 421,256 L 421,255 L 424,252 L 424,251 L 428,247 L 428,246 L 429,245 L 430,245 L 431,244 L 432,244 L 432,243 L 435,240 L 436,240 L 439,237 L 440,237 L 441,236 L 442,236 L 443,235 L 445,235 L 446,234 L 447,234 L 448,233 L 450,233 L 451,232 L 454,232 L 455,231 L 461,231 L 462,230 L 468,230 L 469,229 L 469,227 L 468,226 L 464,226 L 463,225 L 453,225 L 452,224 Z" fill="#870ff6"/>
<path d="M 1079,219 L 1078,220 L 1071,220 L 1070,221 L 1066,221 L 1065,222 L 1063,222 L 1062,223 L 1060,223 L 1059,224 L 1058,224 L 1057,225 L 1055,225 L 1054,226 L 1053,226 L 1052,227 L 1051,227 L 1050,228 L 1049,228 L 1048,229 L 1047,229 L 1045,231 L 1044,231 L 1041,234 L 1040,234 L 1032,242 L 1032,243 L 1031,244 L 1031,245 L 1030,246 L 1029,246 L 1029,247 L 1026,250 L 1026,251 L 1024,253 L 1024,254 L 1023,255 L 1023,256 L 1021,258 L 1021,259 L 1020,260 L 1020,261 L 1018,263 L 1018,264 L 1017,265 L 1017,267 L 1015,269 L 1015,270 L 1014,271 L 1014,273 L 1012,275 L 1012,277 L 1011,278 L 1011,279 L 1010,280 L 1010,282 L 1009,283 L 1009,284 L 1008,285 L 1008,287 L 1007,288 L 1007,289 L 1006,290 L 1006,292 L 1005,293 L 1005,294 L 1004,295 L 1004,297 L 1003,298 L 1003,301 L 1002,302 L 1002,303 L 1001,304 L 1001,306 L 1000,307 L 1000,308 L 999,309 L 999,311 L 998,312 L 998,314 L 997,315 L 997,317 L 996,318 L 996,321 L 995,322 L 995,324 L 994,325 L 994,327 L 993,328 L 993,330 L 992,331 L 992,333 L 991,334 L 991,336 L 990,337 L 990,338 L 989,339 L 989,343 L 988,344 L 984,344 L 983,345 L 980,345 L 979,344 L 978,345 L 951,345 L 951,347 L 950,348 L 950,350 L 949,351 L 949,352 L 948,353 L 948,354 L 947,355 L 947,358 L 946,359 L 946,360 L 945,361 L 945,363 L 944,364 L 944,365 L 943,366 L 943,367 L 942,368 L 942,370 L 941,371 L 941,372 L 940,373 L 940,375 L 939,376 L 939,377 L 938,378 L 938,380 L 937,381 L 937,382 L 936,383 L 936,385 L 935,386 L 935,387 L 934,388 L 934,392 L 933,393 L 933,394 L 932,395 L 932,397 L 933,398 L 965,398 L 967,400 L 967,401 L 966,402 L 966,404 L 965,405 L 965,407 L 964,408 L 964,409 L 963,410 L 963,412 L 962,413 L 962,415 L 961,416 L 961,417 L 960,418 L 960,421 L 959,422 L 959,423 L 958,424 L 958,426 L 957,427 L 957,429 L 956,430 L 956,432 L 955,433 L 955,435 L 954,436 L 954,441 L 953,442 L 953,444 L 952,445 L 952,450 L 951,451 L 951,455 L 950,456 L 950,479 L 951,480 L 951,484 L 952,485 L 952,490 L 953,491 L 953,493 L 954,494 L 954,497 L 955,498 L 955,499 L 956,500 L 956,501 L 957,502 L 957,503 L 958,504 L 958,505 L 959,506 L 959,507 L 961,509 L 961,510 L 962,511 L 962,512 L 971,521 L 972,521 L 975,524 L 976,524 L 977,525 L 978,525 L 980,527 L 981,527 L 982,528 L 983,528 L 984,529 L 985,529 L 986,530 L 988,530 L 989,531 L 991,531 L 992,532 L 996,532 L 997,533 L 999,533 L 1000,534 L 1005,534 L 1006,535 L 1020,535 L 1021,536 L 1024,536 L 1025,535 L 1026,536 L 1027,535 L 1039,535 L 1040,534 L 1045,534 L 1046,533 L 1049,533 L 1050,532 L 1054,532 L 1055,531 L 1058,531 L 1059,530 L 1061,530 L 1062,529 L 1064,529 L 1065,528 L 1066,528 L 1067,527 L 1068,527 L 1069,526 L 1070,526 L 1071,525 L 1073,525 L 1074,524 L 1075,524 L 1076,523 L 1078,523 L 1079,522 L 1080,522 L 1082,520 L 1083,520 L 1085,518 L 1086,518 L 1087,517 L 1088,517 L 1089,516 L 1090,516 L 1092,514 L 1093,514 L 1095,512 L 1096,512 L 1098,510 L 1099,510 L 1104,505 L 1105,505 L 1107,503 L 1108,503 L 1110,501 L 1110,498 L 1109,497 L 1109,494 L 1108,493 L 1108,491 L 1107,490 L 1107,489 L 1106,488 L 1106,485 L 1105,484 L 1105,483 L 1104,482 L 1104,479 L 1103,478 L 1103,476 L 1102,475 L 1102,472 L 1101,471 L 1101,467 L 1100,466 L 1100,451 L 1101,450 L 1101,448 L 1100,447 L 1097,447 L 1096,448 L 1095,448 L 1094,449 L 1093,449 L 1091,451 L 1090,451 L 1089,452 L 1088,452 L 1087,453 L 1087,454 L 1085,456 L 1084,456 L 1082,458 L 1081,458 L 1077,462 L 1076,462 L 1073,465 L 1072,465 L 1070,467 L 1069,467 L 1068,468 L 1067,468 L 1065,470 L 1064,470 L 1063,471 L 1062,471 L 1061,472 L 1060,472 L 1059,473 L 1058,473 L 1057,474 L 1056,474 L 1055,475 L 1054,475 L 1052,477 L 1050,477 L 1049,478 L 1048,478 L 1047,479 L 1045,479 L 1044,480 L 1043,480 L 1042,481 L 1040,481 L 1039,482 L 1037,482 L 1036,483 L 1034,483 L 1033,484 L 1019,484 L 1016,481 L 1015,481 L 1012,478 L 1012,477 L 1011,476 L 1011,475 L 1010,474 L 1010,472 L 1009,471 L 1009,456 L 1010,455 L 1010,449 L 1011,448 L 1011,445 L 1012,444 L 1012,441 L 1013,440 L 1013,438 L 1014,437 L 1014,436 L 1015,435 L 1015,432 L 1016,431 L 1016,428 L 1017,427 L 1017,426 L 1018,425 L 1018,423 L 1019,422 L 1019,421 L 1020,420 L 1020,419 L 1021,418 L 1021,416 L 1022,415 L 1022,413 L 1023,412 L 1023,411 L 1024,410 L 1024,409 L 1025,408 L 1025,407 L 1026,406 L 1026,405 L 1027,404 L 1027,403 L 1028,402 L 1028,400 L 1029,399 L 1031,399 L 1032,398 L 1035,398 L 1036,397 L 1039,397 L 1040,396 L 1044,396 L 1045,395 L 1048,395 L 1049,394 L 1053,394 L 1054,393 L 1056,393 L 1057,392 L 1058,392 L 1059,391 L 1062,391 L 1063,390 L 1064,390 L 1065,389 L 1068,389 L 1069,388 L 1070,388 L 1072,386 L 1073,386 L 1074,385 L 1076,385 L 1078,383 L 1080,383 L 1081,382 L 1082,382 L 1084,380 L 1085,380 L 1087,378 L 1088,378 L 1089,377 L 1090,377 L 1091,376 L 1092,376 L 1094,374 L 1095,374 L 1099,370 L 1100,370 L 1101,369 L 1102,369 L 1107,364 L 1108,364 L 1123,349 L 1123,348 L 1124,347 L 1125,347 L 1126,346 L 1126,345 L 1129,342 L 1129,341 L 1131,339 L 1131,338 L 1134,335 L 1134,334 L 1136,332 L 1136,331 L 1137,330 L 1137,329 L 1138,328 L 1138,327 L 1139,326 L 1139,325 L 1140,324 L 1140,323 L 1141,322 L 1141,321 L 1142,320 L 1142,319 L 1143,318 L 1143,316 L 1144,315 L 1144,313 L 1145,312 L 1145,310 L 1146,309 L 1146,307 L 1147,306 L 1147,302 L 1148,301 L 1148,296 L 1149,295 L 1148,294 L 1149,293 L 1149,281 L 1148,280 L 1148,274 L 1147,273 L 1147,269 L 1146,268 L 1146,266 L 1145,265 L 1145,263 L 1144,262 L 1144,260 L 1143,259 L 1143,258 L 1142,257 L 1142,256 L 1141,255 L 1141,254 L 1140,253 L 1140,252 L 1139,251 L 1139,250 L 1138,249 L 1138,248 L 1135,245 L 1135,244 L 1134,243 L 1134,242 L 1126,234 L 1125,234 L 1123,232 L 1122,232 L 1119,229 L 1118,229 L 1116,227 L 1115,227 L 1114,226 L 1112,226 L 1111,225 L 1110,225 L 1109,224 L 1107,224 L 1106,223 L 1104,223 L 1103,222 L 1101,222 L 1100,221 L 1096,221 L 1095,220 L 1089,220 L 1088,219 Z" fill="#f237f3"/>
<path d="M 537,219 L 536,220 L 529,220 L 528,221 L 525,221 L 524,222 L 522,222 L 521,223 L 518,223 L 517,224 L 515,224 L 514,225 L 511,225 L 510,226 L 508,226 L 507,227 L 505,227 L 504,228 L 502,228 L 501,229 L 499,229 L 498,230 L 497,230 L 496,231 L 494,231 L 493,232 L 489,232 L 488,233 L 485,233 L 484,234 L 482,234 L 481,235 L 478,235 L 477,236 L 475,236 L 474,237 L 471,237 L 470,238 L 469,238 L 468,239 L 465,239 L 464,240 L 462,240 L 461,241 L 460,241 L 459,242 L 457,242 L 456,243 L 455,243 L 454,244 L 453,244 L 452,245 L 451,245 L 450,246 L 449,246 L 448,247 L 447,247 L 445,249 L 444,249 L 435,258 L 435,259 L 433,261 L 433,262 L 432,263 L 432,264 L 431,265 L 431,266 L 430,267 L 430,268 L 429,269 L 429,272 L 428,273 L 428,280 L 427,281 L 427,289 L 428,290 L 428,295 L 429,296 L 429,298 L 430,299 L 430,301 L 431,302 L 431,303 L 434,306 L 434,307 L 441,314 L 442,314 L 444,316 L 445,316 L 447,318 L 448,318 L 449,319 L 450,319 L 451,320 L 452,320 L 453,321 L 454,321 L 455,322 L 457,322 L 458,323 L 459,323 L 460,324 L 462,324 L 463,325 L 465,325 L 466,326 L 468,326 L 469,327 L 472,327 L 473,328 L 476,328 L 477,329 L 482,329 L 483,330 L 486,330 L 487,331 L 491,331 L 492,332 L 496,332 L 497,333 L 502,333 L 503,334 L 507,334 L 508,335 L 515,335 L 516,336 L 520,336 L 521,337 L 524,337 L 525,338 L 528,338 L 529,339 L 531,339 L 532,340 L 535,340 L 536,341 L 538,341 L 539,342 L 541,342 L 542,343 L 545,343 L 546,344 L 547,344 L 548,345 L 550,345 L 551,346 L 552,346 L 553,347 L 554,347 L 555,348 L 557,348 L 558,349 L 560,349 L 561,350 L 562,350 L 563,351 L 564,351 L 565,352 L 566,352 L 567,353 L 568,353 L 570,355 L 572,355 L 573,356 L 574,356 L 575,357 L 576,357 L 578,359 L 579,359 L 580,360 L 581,360 L 583,362 L 584,362 L 585,363 L 586,363 L 587,364 L 588,364 L 592,368 L 593,368 L 595,370 L 596,370 L 600,374 L 601,374 L 603,376 L 604,376 L 607,379 L 608,379 L 612,383 L 613,383 L 614,384 L 615,384 L 619,388 L 620,388 L 622,390 L 623,390 L 625,392 L 626,392 L 629,395 L 630,395 L 632,397 L 633,397 L 635,399 L 637,399 L 641,403 L 642,403 L 643,404 L 644,404 L 645,405 L 646,405 L 647,406 L 648,406 L 650,408 L 651,408 L 652,409 L 653,409 L 654,410 L 655,410 L 656,411 L 657,411 L 658,412 L 659,412 L 660,413 L 662,413 L 663,414 L 665,414 L 666,415 L 667,415 L 668,416 L 671,416 L 672,417 L 686,417 L 687,416 L 688,416 L 689,415 L 690,415 L 693,412 L 694,413 L 693,412 L 696,409 L 696,408 L 698,406 L 698,404 L 699,403 L 699,402 L 700,401 L 700,397 L 701,396 L 701,391 L 702,390 L 702,374 L 701,373 L 701,367 L 700,366 L 700,361 L 699,360 L 699,357 L 698,356 L 698,354 L 697,353 L 697,351 L 696,350 L 696,349 L 695,348 L 695,347 L 694,346 L 694,344 L 693,343 L 693,342 L 692,341 L 692,340 L 691,339 L 691,338 L 689,336 L 689,335 L 687,333 L 687,332 L 684,329 L 684,328 L 669,313 L 668,313 L 665,310 L 664,310 L 661,307 L 660,307 L 657,304 L 656,304 L 654,302 L 653,302 L 650,299 L 649,299 L 648,298 L 647,298 L 645,296 L 644,296 L 642,294 L 641,294 L 638,291 L 637,291 L 636,290 L 636,289 L 635,289 L 634,288 L 632,288 L 628,284 L 627,284 L 624,281 L 623,281 L 619,277 L 617,277 L 617,279 L 618,280 L 618,281 L 620,283 L 620,284 L 621,284 L 625,288 L 625,289 L 638,302 L 638,303 L 644,309 L 644,310 L 647,313 L 647,314 L 651,318 L 651,319 L 653,321 L 653,323 L 654,324 L 654,325 L 655,326 L 655,327 L 656,328 L 656,330 L 657,331 L 657,333 L 658,334 L 658,339 L 659,340 L 659,348 L 658,349 L 658,353 L 657,354 L 657,355 L 656,356 L 656,357 L 650,363 L 649,363 L 648,364 L 646,364 L 645,365 L 629,365 L 628,364 L 626,364 L 625,363 L 623,363 L 622,362 L 620,362 L 619,361 L 616,361 L 615,360 L 614,360 L 613,359 L 612,359 L 611,358 L 609,358 L 607,356 L 606,356 L 605,355 L 604,355 L 603,354 L 602,354 L 600,352 L 599,352 L 598,351 L 597,351 L 595,349 L 594,349 L 592,347 L 591,347 L 590,346 L 589,346 L 587,344 L 586,344 L 584,342 L 583,342 L 582,341 L 581,341 L 579,339 L 578,339 L 576,337 L 574,337 L 572,335 L 571,335 L 570,334 L 569,334 L 568,333 L 567,333 L 566,332 L 565,332 L 564,331 L 563,331 L 562,330 L 560,330 L 559,329 L 557,329 L 556,328 L 555,328 L 554,327 L 552,327 L 551,326 L 548,326 L 547,325 L 544,325 L 543,324 L 540,324 L 539,323 L 532,323 L 531,322 L 527,322 L 526,321 L 521,321 L 520,320 L 517,320 L 516,319 L 512,319 L 511,318 L 508,318 L 507,317 L 504,317 L 503,316 L 499,316 L 497,314 L 495,314 L 494,313 L 493,313 L 492,312 L 490,312 L 488,310 L 487,310 L 486,309 L 485,309 L 477,301 L 477,300 L 476,299 L 476,297 L 475,296 L 475,293 L 474,292 L 474,288 L 475,287 L 475,282 L 476,281 L 476,279 L 478,277 L 478,275 L 480,273 L 480,272 L 484,268 L 484,267 L 487,264 L 488,265 L 488,264 L 492,260 L 493,260 L 495,258 L 496,258 L 497,257 L 498,257 L 500,255 L 501,255 L 502,254 L 503,254 L 504,253 L 505,253 L 506,252 L 507,252 L 508,251 L 510,251 L 511,250 L 512,250 L 513,249 L 515,249 L 516,248 L 518,248 L 519,247 L 521,247 L 522,246 L 523,246 L 524,245 L 527,245 L 528,244 L 535,244 L 536,243 L 548,243 L 549,244 L 554,244 L 555,245 L 557,245 L 558,246 L 559,246 L 561,248 L 562,248 L 564,250 L 565,250 L 566,251 L 567,251 L 576,260 L 576,261 L 582,267 L 582,268 L 583,269 L 583,270 L 587,274 L 587,275 L 589,277 L 589,278 L 592,281 L 592,282 L 595,285 L 595,286 L 597,288 L 597,289 L 602,294 L 602,295 L 604,297 L 604,298 L 621,315 L 622,315 L 626,319 L 626,320 L 625,321 L 624,321 L 621,318 L 620,318 L 618,316 L 617,316 L 611,310 L 610,310 L 594,294 L 594,293 L 591,290 L 591,289 L 590,288 L 589,288 L 588,287 L 588,286 L 587,285 L 587,284 L 581,278 L 581,277 L 576,272 L 576,271 L 575,271 L 573,269 L 573,268 L 572,267 L 571,267 L 565,261 L 564,261 L 563,260 L 562,260 L 560,258 L 559,258 L 558,257 L 557,257 L 556,256 L 554,256 L 553,255 L 551,255 L 550,254 L 535,254 L 534,255 L 531,255 L 530,256 L 528,256 L 527,257 L 525,257 L 524,258 L 523,258 L 522,259 L 521,259 L 520,260 L 518,260 L 517,261 L 516,261 L 515,262 L 514,262 L 511,265 L 510,265 L 508,267 L 507,267 L 504,270 L 504,271 L 502,273 L 502,274 L 501,275 L 501,276 L 500,277 L 500,283 L 501,284 L 501,286 L 502,287 L 502,288 L 504,290 L 504,291 L 506,293 L 507,293 L 509,295 L 510,295 L 511,296 L 512,296 L 514,298 L 515,298 L 516,299 L 518,299 L 519,300 L 521,300 L 522,301 L 524,301 L 525,302 L 527,302 L 528,303 L 529,303 L 530,304 L 532,304 L 533,305 L 535,305 L 536,306 L 538,306 L 539,307 L 542,307 L 543,308 L 545,308 L 546,309 L 548,309 L 549,310 L 551,310 L 552,311 L 554,311 L 555,312 L 556,312 L 557,313 L 559,313 L 560,314 L 562,314 L 563,315 L 564,315 L 565,316 L 566,316 L 567,317 L 568,317 L 570,319 L 571,319 L 572,320 L 573,320 L 574,321 L 575,321 L 577,323 L 578,323 L 580,325 L 581,325 L 583,327 L 584,327 L 586,329 L 587,329 L 589,331 L 590,331 L 593,334 L 594,334 L 595,335 L 596,335 L 597,336 L 598,336 L 600,338 L 601,338 L 603,340 L 604,340 L 605,341 L 606,341 L 607,342 L 608,342 L 609,343 L 611,343 L 613,345 L 615,345 L 616,346 L 617,346 L 618,347 L 620,347 L 621,348 L 624,348 L 625,349 L 642,349 L 643,348 L 644,348 L 648,344 L 648,343 L 649,342 L 649,330 L 648,329 L 648,327 L 647,326 L 647,325 L 646,324 L 646,323 L 645,322 L 645,321 L 644,320 L 644,319 L 643,318 L 643,317 L 640,314 L 640,313 L 636,309 L 636,308 L 633,305 L 633,304 L 629,300 L 629,299 L 623,293 L 623,292 L 619,288 L 619,287 L 618,287 L 617,286 L 618,285 L 617,286 L 615,284 L 615,283 L 609,277 L 609,276 L 605,272 L 605,271 L 602,268 L 602,267 L 600,265 L 600,264 L 596,260 L 596,259 L 594,257 L 594,256 L 590,252 L 590,251 L 587,248 L 587,247 L 583,243 L 583,242 L 570,229 L 569,229 L 566,226 L 565,226 L 564,225 L 562,225 L 560,223 L 558,223 L 557,222 L 555,222 L 554,221 L 552,221 L 551,220 L 545,220 L 544,219 Z" fill="#8811f6"/>
</svg>